<svg width="17" height="29" viewBox="0 0 17 29" fill="none" xmlns="http://www.w3.org/2000/svg">
<path fill-rule="evenodd" clip-rule="evenodd" d="M6.31959 2.28728C7.78756 0.823 9.77863 0.000245011 11.8548 0H15.881C16.1776 0 16.4621 0.117513 16.6718 0.326688C16.8815 0.535864 16.9994 0.819566 16.9994 1.11538V6.46923C16.9994 6.76505 16.8815 7.04875 16.6718 7.25793C16.4621 7.4671 16.1776 7.58462 15.881 7.58462H11.8548C11.8255 7.58462 11.7964 7.59039 11.7692 7.6016C11.7421 7.61281 11.7174 7.62924 11.6967 7.64995C11.6759 7.67067 11.6594 7.69526 11.6482 7.72232C11.6369 7.74939 11.6312 7.7784 11.6312 7.80769V10.7077H15.881C16.051 10.7076 16.2188 10.7462 16.3717 10.8205C16.5245 10.8948 16.6583 11.0028 16.763 11.1365C16.8677 11.2701 16.9404 11.4258 16.9757 11.5917C17.0109 11.7575 17.0078 11.9292 16.9666 12.0937L15.6245 17.4476C15.564 17.689 15.4242 17.9032 15.2275 18.0563C15.0308 18.2094 14.7884 18.2924 14.5389 18.2923H11.6312V27.8846C11.6312 28.1804 11.5133 28.4641 11.3036 28.6733C11.0939 28.8825 10.8094 29 10.5128 29H5.14455C4.84794 29 4.56347 28.8825 4.35373 28.6733C4.144 28.4641 4.02617 28.1804 4.02617 27.8846V18.2923H1.11838C0.821767 18.2923 0.537303 18.1748 0.327566 17.9656C0.117829 17.7564 0 17.4727 0 17.1769V11.8231C0 11.6766 0.0289277 11.5316 0.0851315 11.3962C0.141335 11.2609 0.223715 11.138 0.327566 11.0344C0.431417 10.9308 0.554706 10.8486 0.690395 10.7926C0.826083 10.7365 0.971512 10.7077 1.11838 10.7077H4.02617V7.80769C4.02641 5.73706 4.85138 3.75132 6.31959 2.28728ZM11.8548 2.23077C10.3718 2.23077 8.94944 2.81834 7.90076 3.86421C6.85207 4.91009 6.26293 6.3286 6.26293 7.80769V11.8231C6.26293 12.1189 6.1451 12.4026 5.93536 12.6118C5.72563 12.8209 5.44116 12.9385 5.14455 12.9385H2.23676V16.0615H5.14455C5.44116 16.0615 5.72563 16.1791 5.93536 16.3882C6.1451 16.5974 6.26293 16.8811 6.26293 17.1769V26.7692H9.39439V17.1769C9.39439 16.8811 9.51222 16.5974 9.72196 16.3882C9.93169 16.1791 10.2162 16.0615 10.5128 16.0615H13.6651L14.448 12.9385H10.5128C10.2162 12.9385 9.93169 12.8209 9.72196 12.6118C9.51222 12.4026 9.39439 12.1189 9.39439 11.8231V7.80769C9.39439 7.15689 9.65362 6.53275 10.115 6.07256C10.5765 5.61238 11.2023 5.35385 11.8548 5.35385H14.7626V2.23077H11.8548Z" fill="#6E4C41"/>
</svg>
