<svg width="34" height="33" viewBox="0 0 34 33" fill="none" xmlns="http://www.w3.org/2000/svg">
<path d="M1.41174 16.5C1.41174 9.19379 1.41174 5.53905 3.68127 3.26953C5.9508 1 9.6039 1 16.9117 1C24.218 1 27.8727 1 30.1422 3.26953C32.4117 5.53905 32.4117 9.19216 32.4117 16.5C32.4117 23.8062 32.4117 27.4609 30.1422 29.7305C27.8727 32 24.2196 32 16.9117 32C9.60553 32 5.9508 32 3.68127 29.7305C1.41174 27.4609 1.41174 23.8078 1.41174 16.5Z" fill="#6E4C41" stroke="#FFE76A" stroke-width="1.5" stroke-linecap="round" stroke-linejoin="round"/>
<path d="M24.2539 16.5001C24.2539 18.4473 23.4804 20.3148 22.1035 21.6917C20.7265 23.0686 18.8591 23.8422 16.9118 23.8422C14.9646 23.8422 13.0971 23.0686 11.7202 21.6917C10.3432 20.3148 9.5697 18.4473 9.5697 16.5001C9.5697 14.5528 10.3432 12.6853 11.7202 11.3084C13.0971 9.93149 14.9646 9.15795 16.9118 9.15795C18.8591 9.15795 20.7265 9.93149 22.1035 11.3084C23.4804 12.6853 24.2539 14.5528 24.2539 16.5001ZM25.8985 7.52637H25.8822H25.8985Z" fill="#6E4C41"/>
<path d="M25.8985 7.52637H25.8822M24.2539 16.5001C24.2539 18.4473 23.4804 20.3148 22.1035 21.6917C20.7265 23.0686 18.8591 23.8422 16.9118 23.8422C14.9646 23.8422 13.0971 23.0686 11.7202 21.6917C10.3432 20.3148 9.5697 18.4473 9.5697 16.5001C9.5697 14.5528 10.3432 12.6853 11.7202 11.3084C13.0971 9.93149 14.9646 9.15795 16.9118 9.15795C18.8591 9.15795 20.7265 9.93149 22.1035 11.3084C23.4804 12.6853 24.2539 14.5528 24.2539 16.5001Z" stroke="#FFE76A" stroke-width="1.5" stroke-linecap="round" stroke-linejoin="round"/>
</svg>
