<svg width="50" height="51" viewBox="0 0 50 51" fill="none" xmlns="http://www.w3.org/2000/svg">
<mask id="mask0_649_678" style="mask-type:alpha" maskUnits="userSpaceOnUse" x="0" y="0" width="50" height="51">
<path d="M43.3203 19.25C43.8455 19.2495 44.3495 19.4565 44.7227 19.826C45.0959 20.1955 45.3079 20.6975 45.3125 21.2227C45.3146 21.4047 45.2882 21.5859 45.2344 21.7598L40.1856 39.5625C39.9515 40.3941 39.4515 41.1261 38.7618 41.6464C38.0722 42.1667 37.2311 42.4466 36.3672 42.4434H13.6328C12.7673 42.4441 11.9249 42.1636 11.2327 41.644C10.5405 41.1243 10.0359 40.3938 9.79493 39.5625L4.7461 21.7598L4.68751 21.2227C4.69215 20.6975 4.90414 20.1955 5.27731 19.826C5.65047 19.4565 6.15455 19.2495 6.6797 19.25H43.3203ZM24.4414 34.8818C25.2531 34.8778 26.0454 34.6334 26.7183 34.1795C27.3912 33.7256 27.9146 33.0826 28.2224 32.3315C28.5302 31.5804 28.6087 30.755 28.4478 29.9594C28.287 29.1638 27.8941 28.4337 27.3187 27.8612C26.7434 27.2887 26.0113 26.8994 25.2149 26.7425C24.4185 26.5857 23.5935 26.6682 22.844 26.9798C22.0945 27.2913 21.454 27.8179 21.0035 28.4931C20.553 29.1683 20.3125 29.9618 20.3125 30.7734C20.3177 31.865 20.755 32.9101 21.5288 33.6801C22.3026 34.45 23.3498 34.8821 24.4414 34.8818Z" stroke="black" stroke-width="2" stroke-linejoin="round"/>
<path d="M34.375 19.25L25 6.75L15.625 19.25" stroke="black" stroke-width="2" stroke-linejoin="round"/>
</mask>
<g mask="url(#mask0_649_678)">
<rect width="64.7727" height="53.4091" transform="matrix(-1 0 0 1 52.2727 -2.90912)" fill="black"/>
</g>
</svg>
