<svg width="29" height="33" viewBox="0 0 29 33" fill="none" xmlns="http://www.w3.org/2000/svg">
<path d="M26.4758 8.17842C23.258 7.49476 20.887 4.76012 20.7176 1.51274V1H15.4675V22.3643C15.4675 24.928 13.4352 26.8081 11.0642 26.8081C9.70935 26.8081 8.35448 26.1245 7.5077 25.099C5.81412 23.048 6.15283 20.1424 8.18513 18.6042C9.20127 17.9205 10.0481 17.9205 11.2336 17.9205V12.4513C5.81412 11.7676 1.91888 15.5277 1.0721 20.8261C0.73338 23.9026 1.58017 26.8081 3.78182 29.03C7.5077 32.961 13.7739 32.961 17.6692 29.2009C19.5321 27.3209 20.5483 24.7571 20.5483 22.1934V11.4258C22.7499 12.964 25.2903 13.8186 28 13.8186V8.34933C27.4919 8.34933 26.9839 8.34933 26.4758 8.17842Z" fill="#6E4C41" stroke="#FFE76A" stroke-width="1.5" stroke-miterlimit="10" stroke-linecap="round" stroke-linejoin="round"/>
</svg>
