<svg width="38" height="32" viewBox="0 0 38 32" fill="none" xmlns="http://www.w3.org/2000/svg">
<path d="M37 1.01681C37 1.01681 33.6978 3.00971 31.8618 3.57482C30.8763 2.41704 29.5665 1.59645 28.1097 1.224C26.6528 0.851562 25.1192 0.945248 23.7161 1.49239C22.3131 2.03953 21.1084 3.01373 20.2649 4.28323C19.4214 5.55272 18.9799 7.05627 19 8.59051V10.2624C16.1243 10.3386 13.2748 9.68696 10.7053 8.36555C8.13576 7.04414 5.92597 5.09396 4.27273 2.68871C4.27273 2.68871 -2.27273 17.7358 12.4545 24.4234C9.0845 26.7606 5.06989 27.9326 1 27.7672C15.7273 36.1267 33.7273 27.7672 33.7273 8.54035C33.7262 8.07445 33.6825 7.61189 33.5964 7.15268C35.2655 5.47075 37 1.01681 37 1.01681Z" fill="#6E4C41" stroke="#FFE76A" stroke-width="1.5" stroke-linecap="round" stroke-linejoin="round"/>
</svg>
